HIERARCHY
ROOT Hips
{
	OFFSET 0.00000 0.00000 0.00000
	CHANNELS 6 Xposition Yposition Zposition Zrotation Yrotation Xrotation 
	JOINT LHipJoint
	{
		OFFSET 0 0 0
		CHANNELS 3 Zrotation Yrotation Xrotation
		JOINT LeftUpLeg
		{
			OFFSET 1.70593 -1.62653 0.87602
			CHANNELS 3 Zrotation Yrotation Xrotation
			JOINT LeftLeg
			{
				OFFSET 2.32330 -6.38322 0.00000
				CHANNELS 3 Zrotation Yrotation Xrotation
				JOINT LeftFoot
				{
					OFFSET 2.45016 -6.73177 0.00000
					CHANNELS 3 Zrotation Yrotation Xrotation
					JOINT LeftToeBase
					{
						OFFSET 0.13029 -0.35798 1.96980
						CHANNELS 3 Zrotation Yrotation Xrotation
						End Site
						{
							OFFSET 0.00000 -0.00000 1.01270
						}
					}
				}
			}
		}
	}
	JOINT RHipJoint
	{
		OFFSET 0 0 0
		CHANNELS 3 Zrotation Yrotation Xrotation
		JOINT RightUpLeg
		{
			OFFSET -1.80599 -1.62652 0.87602
			CHANNELS 3 Zrotation Yrotation Xrotation
			JOINT RightLeg
			{
				OFFSET -2.45375 -6.74162 0.00000
				CHANNELS 3 Zrotation Yrotation Xrotation
				JOINT RightFoot
				{
					OFFSET -2.45828 -6.75406 0.00000
					CHANNELS 3 Zrotation Yrotation Xrotation
					JOINT RightToeBase
					{
						OFFSET -0.13801 -0.37917 1.88456
						CHANNELS 3 Zrotation Yrotation Xrotation
						End Site
						{
							OFFSET -0.00000 -0.00000 0.97281
						}
					}
				}
			}
		}
	}
	JOINT LowerBack
	{
		OFFSET 0 0 0
		CHANNELS 3 Zrotation Yrotation Xrotation
		JOINT Spine
		{
			OFFSET 0.01003 2.00576 -0.14267
			CHANNELS 3 Zrotation Yrotation Xrotation
			JOINT Spine1
			{
				OFFSET 0.00908 2.01191 0.01660
				CHANNELS 3 Zrotation Yrotation Xrotation
				JOINT Neck
				{
					OFFSET 0 0 0
					CHANNELS 3 Zrotation Yrotation Xrotation
					JOINT Neck1
					{
						OFFSET -0.05849 1.60301 0.18934
						CHANNELS 3 Zrotation Yrotation Xrotation
						JOINT Head
						{
							OFFSET 0.01775 1.59435 -0.07960
							CHANNELS 3 Zrotation Yrotation Xrotation
							End Site
							{
								OFFSET 0.01210 1.70732 -0.05248
							}
						}
					}
				}
				JOINT LeftShoulder
				{
					OFFSET 0 0 0
					CHANNELS 3 Zrotation Yrotation Xrotation
					JOINT LeftArm
					{
						OFFSET 3.15315 1.26460 0.30667
						CHANNELS 3 Zrotation Yrotation Xrotation
						JOINT LeftForeArm
						{
							OFFSET 4.97694 -0.00000 -0.00000
							CHANNELS 3 Zrotation Yrotation Xrotation
							JOINT LeftHand
							{
								OFFSET 3.14391 -0.00000 -0.00000
								CHANNELS 3 Zrotation Yrotation Xrotation
								JOINT LeftFingerBase
								{
									OFFSET 0 0 0
									CHANNELS 3 Zrotation Yrotation Xrotation
									JOINT LeftHandIndex1
									{
										OFFSET 0.59358 -0.00000 -0.00000
										CHANNELS 3 Zrotation Yrotation Xrotation
										End Site
										{
											OFFSET 0.47856 -0.00000 -0.00000
										}
									}
								}
								JOINT LThumb
								{
									OFFSET 0 0 0
									CHANNELS 3 Zrotation Yrotation Xrotation
									End Site
									{
										OFFSET 0.48587 -0.00000 0.48587
									}
								}
							}
						}
					}
				}
				JOINT RightShoulder
				{
					OFFSET 0 0 0
					CHANNELS 3 Zrotation Yrotation Xrotation
					JOINT RightArm
					{
						OFFSET -3.25568 1.35581 0.18982
						CHANNELS 3 Zrotation Yrotation Xrotation
						JOINT RightForeArm
						{
							OFFSET -4.90473 -0.00000 0.00000
							CHANNELS 3 Zrotation Yrotation Xrotation
							JOINT RightHand
							{
								OFFSET -3.21621 0.00006 -0.00004
								CHANNELS 3 Zrotation Yrotation Xrotation
								JOINT RightFingerBase
								{
									OFFSET 0 0 0
									CHANNELS 3 Zrotation Yrotation Xrotation
									JOINT RightHandIndex1
									{
										OFFSET -0.62353 -0.00000 -0.00000
										CHANNELS 3 Zrotation Yrotation Xrotation
										End Site
										{
											OFFSET -0.50270 -0.00000 -0.00000
										}
									}
								}
								JOINT RThumb
								{
									OFFSET 0 0 0
									CHANNELS 3 Zrotation Yrotation Xrotation
									End Site
									{
										OFFSET -0.51038 -0.00000 0.51038
									}
								}
							}
						}
					}
				}
			}
		}
	}
}
MOTION
Frames: 14
Frame Time: 0.142857
0.00 0.00 0.00 0 0 0 0 0 0 -21 0 0 0 0 0 0 0 0 0 0 0 0 0 0 21 0 0 0 0 0 0 0 0 0 0 0 0 0 0 0 0 0 0 0 0 0 0 -16 0 0 21 0 0 11 0 0 0 -8 0 0 0 0 0 0 0 0 0 0 0 0 0 0 0 0 0 0 0 0 8 0 0 0 0 0 0 0 0 0 0 0 0 0 0 0 0 0
0.00 0.00 0.00 3.2657 -0.7669 6.0351 0.0000 0.0000 0.0000 -27.6898 6.0060 2.8413 0.7614 5.5727 15.5494 -0.2858 -16.9054 -8.8271 0.0721 1.7320 4.7655 0.0000 0.0000 0.0000 13.0171 17.9276 -42.5443 -3.5379 -11.5187 34.0497 -0.4799 5.6333 -12.3739 -0.1274 2.3006 -6.3373 -3.9314 -0.4421 -0.8816 0.3677 -0.6104 -3.0099 2.5898 -0.2071 -2.5575 -1.5293 0.6647 -6.5531 2.8824 0.6366 15.9488 1.2060 0.4299 5.8799 -0.0000 -0.0000 0.0000 -85.2531 -21.7524 51.6977 27.9052 -39.0289 -10.0640 -0.0000 0.0000 -16.9501 26.0829 -17.2826 -8.2745 -7.1250 0.0000 -0.0000 -1.2113 10.8765 0.9612 -0.0000 -0.0000 0.0000 90.6911 -25.8094 10.1202 -12.7917 20.9812 -2.3782 0.0000 0.0000 10.1843 -20.7235 -31.1105 11.0609 7.1250 -0.0000 -0.0000 13.1977 -62.3352 -5.6137
0.00 0.00 0.00 5.6104 9.1316 7.5479 0.0000 0.0000 0.0000 -25.3840 3.8451 30.3379 0.0000 0.0000 0.0000 0.0587 -2.6686 6.3518 0.1201 2.2338 6.1523 0.0000 0.0000 0.0000 6.0007 16.4210 -50.3254 -4.3405 -12.6002 37.8898 -0.0836 3.9087 -5.4448 -0.0042 -0.4197 1.1532 -3.7865 -2.9800 0.9668 1.9958 -4.0273 -2.8077 4.3125 -1.8896 -3.0332 -0.4782 -0.0843 -9.2370 0.9307 -0.1472 8.8076 0.3924 -0.0392 4.5983 0.0000 0.0000 0.0000 -87.4412 -19.3977 55.7331 34.9044 -44.7437 -14.7460 -0.0000 0.0000 -14.3045 23.7251 -18.7615 -8.0457 -7.1250 0.0000 -0.0000 -2.8882 9.6438 2.3667 0.0000 0.0000 0.0000 90.9199 -32.5052 9.8372 -15.7965 25.2439 -3.5587 0.0000 0.0000 5.2223 -18.8690 -33.6750 10.7307 7.1250 -0.0000 -0.0000 17.4225 -64.3196 -8.2725
0.00 0.00 0.00 3.5354 8.1647 9.8030 0.0000 0.0000 0.0000 -23.3955 1.3750 23.3947 0.7605 5.5692 15.5393 1.1039 9.1574 18.8942 0.0882 -1.9153 -5.2717 0.0000 0.0000 0.0000 10.3025 16.9821 -51.3200 -7.2644 -15.5506 49.8674 -0.0587 7.1599 -6.2843 -0.0459 -1.3827 3.8025 -0.5918 -3.1894 2.2630 3.6590 -4.1302 -3.8877 4.3951 -1.9543 -4.9812 0.2303 0.6760 -11.1231 -0.8146 0.9524 7.4136 -0.2479 0.4320 4.4809 -0.0000 0.0000 0.0000 -90.1228 -11.6790 48.8232 24.4624 -35.6494 -7.9744 -0.0000 0.0000 -10.4738 26.6372 -19.4503 -9.4819 -7.1250 0.0000 -0.0000 -1.0746 8.4251 0.9057 -0.0000 0.0000 0.0000 87.4212 -28.6619 7.2548 -13.6308 22.2045 -2.6870 0.0000 0.0000 11.4134 -17.4310 -33.9447 9.9441 7.1250 -0.0000 -0.0000 19.3146 -64.1827 -9.1405
0.00 0.00 0.00 3.0854 7.4035 9.8458 0.0000 0.0000 0.0000 -23.0321 0.7917 11.9690 3.7573 11.8303 35.1342 0.0821 21.9779 16.0968 0.0835 1.8634 5.1282 0.0000 0.0000 0.0000 13.4545 16.8491 -45.8441 -7.5966 -15.8144 51.0963 -0.2510 10.2354 -10.7174 -0.0034 -0.3767 1.0351 -0.1994 -2.5207 2.2736 3.5007 -3.2291 -3.5574 3.9437 -1.5297 -4.7401 -0.3321 0.3330 -10.2071 0.3773 0.4582 6.7529 0.2165 0.2358 4.0479 -0.0000 0.0000 0.0000 -92.1502 -10.8662 40.4022 13.0739 -21.3955 -2.4802 -0.0000 0.0000 -2.4430 26.7929 -16.8112 -8.3093 -7.1250 0.0000 -0.0000 -0.6978 11.2815 0.5478 -0.0000 0.0000 0.0000 88.2421 -23.6319 3.3331 -13.6324 22.2068 -2.6876 0.0000 0.0000 14.7004 -21.6813 -33.1041 12.2509 7.1250 -0.0000 -0.0000 13.6421 -64.5407 -6.5108
0.00 0.00 0.00 2.1688 5.3154 9.7954 0.0000 0.0000 0.0000 -22.2374 0.5783 -4.4133 7.7954 15.9667 51.8224 0.0470 -0.6451 4.3837 0.6823 -5.2813 -14.7126 0.0000 0.0000 0.0000 18.3450 14.7019 -34.9234 -6.0705 -14.4963 45.2639 -0.3300 14.0551 -13.3899 -0.0035 -0.3811 1.0473 0.1153 -1.0436 0.8009 3.0778 -1.2874 -3.3028 3.1644 -0.5928 -3.7823 -0.4603 -0.1964 -10.7171 0.0455 -0.1972 10.5008 0.0746 -0.1119 4.9103 -0.0000 0.0000 0.0000 -91.5642 -3.8732 20.1896 8.0452 -13.6261 -0.9627 -0.0000 -0.0000 16.7580 25.6604 -19.1872 -8.9724 -7.1250 0.0000 -0.0000 -1.6754 8.8775 1.3974 -0.0000 0.0000 0.0000 87.1203 -13.7279 9.7378 -13.4142 21.8911 -2.6057 0.0000 0.0000 7.6522 -28.8685 -32.8047 16.6303 7.1250 -0.0000 -0.0000 4.4576 -66.2834 -2.2902
0.00 0.00 0.00 -1.4900 2.4386 8.0313 0.0000 0.0000 0.0000 -17.9917 -4.2606 -26.9281 8.6031 16.5454 54.7070 0.4918 -8.8750 -13.0725 0.0091 0.6167 1.6947 0.0000 0.0000 0.0000 25.8336 7.7750 -19.9878 -4.3799 -12.6494 38.0700 0.2571 20.4096 -12.1805 -0.0716 -1.7264 4.7501 3.0687 1.9030 0.0203 2.9070 2.6608 -2.6873 1.2068 1.2957 -2.7745 -1.5159 -1.4680 -9.7799 0.3307 -1.7981 14.3022 0.2105 -0.9264 5.9555 0.0000 -0.0000 0.0000 -84.5376 12.4574 31.4675 11.7985 -19.5017 -2.0345 -0.0000 0.0000 -0.1017 25.6713 -19.1383 -8.9551 -7.1250 0.0000 -0.0000 -1.6634 8.9286 1.3857 0.0000 -0.0000 0.0000 81.7325 -6.1749 26.4198 -25.1174 36.3237 -8.3593 0.0000 -0.0000 -2.1916 -25.7537 -38.2898 16.6429 7.1250 -0.0000 -0.0000 13.8470 -70.7785 -8.5691
0.00 0.00 0.00 -4.6514 -1.7708 7.6909 0.0000 0.0000 0.0000 -12.9507 -6.7526 -36.7110 4.4339 12.7165 38.3162 1.0417 -2.5582 -18.6040 1.0076 -6.3870 -17.9115 0.0000 0.0000 0.0000 28.4683 1.3691 -10.4288 -2.9084 -10.5452 30.7611 1.9584 26.6230 -2.7241 -0.4789 -4.4378 12.3117 5.4289 3.8557 -0.0647 3.0348 5.2644 -2.2268 0.0156 2.5592 -2.0606 -2.0275 -1.2282 -8.5885 1.0973 -1.5301 14.2772 0.5648 -0.7681 5.7503 0.0000 0.0000 0.0000 -82.6190 21.1279 26.2901 12.6412 -20.7592 -2.3246 -0.0000 0.0000 -4.1841 25.6240 -18.6602 -8.7246 -7.1250 0.0000 -0.0000 -1.6456 9.4535 1.3535 0.0000 0.0000 0.0000 77.0015 3.0127 32.1461 -29.0596 40.0735 -10.7990 0.0000 -0.0000 -5.8249 -21.6042 -35.3097 12.8926 7.1250 -0.0000 -0.0000 15.7757 -66.6451 -8.3166
0.00 0.00 0.00 -9.2198 -8.7011 8.4231 0.0000 0.0000 0.0000 1.9684 -14.9219 -42.0447 1.3817 7.4380 21.0196 1.7902 7.6496 -29.0060 0.4212 -4.1653 -11.5423 0.0000 0.0000 0.0000 28.8771 -6.1875 6.2662 -0.6934 -5.3234 14.8332 2.7906 28.0014 10.9637 -1.3873 -7.4523 21.0623 8.6575 6.2204 -1.0046 2.9142 8.2978 -1.9608 -1.6818 4.0609 -0.6969 -0.2015 -1.1507 -8.2513 0.1217 -1.5441 14.2923 -0.0406 -0.7495 5.6745 0.0000 0.0000 0.0000 -82.0784 30.8964 15.4026 11.0448 -18.3568 -1.7900 -0.0000 0.0000 -2.3779 22.8671 -17.4815 -7.2203 -7.1250 0.0000 -0.0000 -3.3456 11.1339 2.6412 0.0000 0.0000 0.0000 73.4762 13.1993 35.4461 -28.8756 39.9099 -10.6808 0.0000 -0.0000 -7.9686 -26.8830 -34.6090 16.0630 7.1250 -0.0000 -0.0000 8.4490 -67.5307 -4.5916
0.00 0.00 0.00 -10.2543 -14.0774 10.6508 0.0000 0.0000 0.0000 2.1481 -7.7192 -49.8821 2.1636 9.1988 26.4192 0.3667 7.7074 -16.7694 0.0361 -1.2270 -3.3737 0.0000 0.0000 0.0000 25.3318 -2.4245 19.8893 -0.2359 -3.1256 8.6285 1.3942 21.1466 14.3022 -0.6949 -5.3287 14.8484 6.8749 7.4145 -0.4863 1.4885 9.9648 -2.4983 -2.2404 4.8781 -1.4287 -0.8237 -0.8962 -8.7127 1.7053 -1.2984 10.6135 0.5758 -0.5656 4.6264 0.0000 0.0000 0.0000 -83.4786 37.1777 4.3799 9.8262 -16.4673 -1.4253 -0.0000 -0.0000 1.2443 22.0129 -17.1428 -6.7956 -7.1250 0.0000 -0.0000 -3.8856 11.6093 3.0314 0.0000 0.0000 0.0000 73.9690 12.4159 36.7859 -30.8968 41.6498 -12.0012 0.0000 -0.0000 -9.1204 -24.2252 -36.1322 14.8589 7.1250 -0.0000 -0.0000 13.3593 -68.2211 -7.5004
0.00 0.00 0.00 -10.3047 -12.6215 12.7176 0.0000 0.0000 0.0000 0.9489 -6.6413 -59.5201 5.8161 14.2477 44.2391 0.0162 5.1713 -7.8795 0.2373 -3.1349 -8.6545 0.0000 0.0000 0.0000 25.2462 -0.0263 21.8248 -0.3579 -3.8433 10.6363 0.4451 15.1326 15.7977 -0.4950 -4.5108 12.5184 6.2404 7.4458 -1.5617 0.4212 9.9299 -3.0219 -2.8710 4.8625 -1.2911 -2.4673 -1.5233 -9.5925 3.8820 -2.1114 8.6524 1.4572 -0.9019 4.2228 0.0000 0.0000 0.0000 -82.2405 35.9993 -1.9907 8.4532 -14.2848 -1.0612 -0.0000 -0.0000 8.6729 20.9863 -19.7828 -7.3972 -7.1250 0.0000 -0.0000 -4.7442 8.9697 3.9605 0.0000 0.0000 0.0000 75.0919 6.7336 35.8162 -32.6356 43.0480 -13.1726 0.0000 -0.0000 -9.6884 -23.2616 -33.8069 13.4513 7.1250 -0.0000 -0.0000 12.3420 -65.6710 -6.2037
0.00 0.00 0.00 -7.6869 -11.4903 15.1480 0.0000 0.0000 0.0000 -5.6162 -6.7823 -60.5821 9.1305 16.8910 56.5403 0.4348 -3.3262 -11.7598 0.0518 -1.4693 -4.0412 0.0000 0.0000 0.0000 24.1273 4.9939 16.4021 -1.9196 -8.6966 24.8508 -1.6660 -0.7482 24.1960 -0.4609 4.3546 -12.0766 2.7021 7.7601 -1.4568 -2.2615 10.3373 -4.1633 -3.8221 5.0723 -2.6022 -3.5799 -2.6763 -10.5858 5.5074 -3.5854 6.9605 2.0334 -1.5734 3.9688 -0.0000 0.0000 0.0000 -78.2020 29.0546 -8.8500 8.2303 -13.9255 -1.0068 -0.0000 -0.0000 16.0123 16.4634 -18.9764 -5.4891 -7.1250 0.0000 -0.0000 -7.6268 10.3905 6.1827 -0.0000 0.0000 0.0000 80.1487 -3.5584 33.4484 -27.2936 38.4577 -9.6811 0.0000 -0.0000 -7.7313 -23.9676 -37.5279 15.1521 7.1250 -0.0000 -0.0000 15.2727 -69.4758 -9.0227
0.00 0.00 0.00 -5.0925 -9.8918 14.2809 0.0000 0.0000 0.0000 -10.8889 -8.3918 -53.2950 8.9906 16.8017 56.0576 0.8995 -4.8366 -16.9518 0.2070 -2.9293 -8.0821 0.0000 0.0000 0.0000 22.9427 5.4960 7.3501 -5.4021 -13.8228 42.5322 -0.8529 -11.3476 17.1678 -0.0004 -0.1246 0.3423 -0.6597 6.6453 -0.7657 -2.3835 8.8105 -3.7638 -2.2448 4.3872 -3.1750 -3.5142 -2.2433 -10.5782 4.9157 -2.9961 8.0346 1.8796 -1.3049 4.2573 -0.0000 -0.0000 0.0000 -79.2437 21.0286 -4.8431 8.9387 -15.0627 -1.1841 -0.0000 -0.0000 8.3144 22.3627 -16.3679 -6.6131 -7.1250 0.0000 -0.0000 -3.6016 12.3866 2.7508 -0.0000 -0.0000 0.0000 83.0878 -7.0392 31.4336 -21.0587 31.8968 -6.0809 0.0000 -0.0000 -2.9316 -24.5012 -33.2790 14.0405 7.1250 -0.0000 -0.0000 10.3780 -65.5024 -5.1657
0.00 0.00 0.00 -3.5631 -8.0046 12.4981 0.0000 0.0000 0.0000 -15.6497 -9.3557 -40.8375 7.1750 15.4775 49.5333 1.2620 -5.4488 -20.1362 0.0683 -1.6863 -4.6394 0.0000 0.0000 0.0000 23.1635 7.4843 -6.0170 -9.4889 -17.1122 57.7660 0.0383 3.6281 0.1981 -0.2166 2.9964 -8.2688 -1.3931 5.3645 0.0016 -2.1958 7.0747 -3.6315 -1.7054 3.5380 -3.6318 -3.2433 -1.9009 -9.6881 5.1355 -2.6961 10.0247 1.9314 -1.1308 4.7067 -0.0000 0.0000 0.0000 -79.5283 12.1483 7.9171 11.8485 -19.5770 -2.0512 -0.0000 -0.0000 1.4169 23.1707 -18.5373 -7.7486 -7.1250 0.0000 -0.0000 -3.2300 9.9662 2.6265 -0.0000 0.0000 0.0000 86.5807 -13.7645 27.3765 -18.7466 29.1027 -4.9070 0.0000 0.0000 1.8814 -26.0982 -31.9609 14.5366 7.1250 -0.0000 -0.0000 7.4235 -64.6242 -3.5352
